<svg width="207" height="498" viewBox="0 0 207 498" fill="none" xmlns="http://www.w3.org/2000/svg">
<path d="M119.379 34.2029H101.274L98.8223 23.2346C98.8223 23.2346 105.989 27.395 107.686 24.5584C109.383 21.7218 109.006 22.8564 110.704 23.2346C112.401 23.6128 112.401 21.3436 114.475 22.6673C116.739 24.1802 120.133 31.3662 119.379 34.2029Z" fill="#6B1912"/>
<path d="M100.709 484.846L122.963 482.955L121.831 455.346L99.3887 457.426L100.709 484.846Z" fill="#D88D6C"/>
<path d="M142.199 481.055C142.199 481.055 127.489 474.247 125.037 469.33C125.037 469.33 120.699 453.445 114.099 461.766C114.099 461.766 107.309 467.25 97.6911 462.901L96.5596 492.969L163.133 492.78C161.435 488.241 159.927 483.135 142.199 481.055Z" fill="url(#paint0_linear)"/>
<path d="M96.5598 493.167L96.1826 497.884L163.321 497.695C163.321 495.808 163.887 494.865 162.944 492.978L96.5598 493.167Z" fill="#C73E39"/>
<path d="M3.20605 481.064L25.4601 484.846L31.3065 457.993L9.24107 454.211L3.20605 481.064Z" fill="#D88D6C"/>
<path d="M46.0161 481.064C46.0161 481.064 31.3059 474.256 28.8542 469.34C28.8542 469.34 32.2489 456.858 24.328 463.099C24.328 463.099 10.7494 468.205 5.09163 461.964L0.56543 493.167L67.1384 492.978C65.0639 488.25 63.5552 483.144 46.0161 481.064Z" fill="url(#paint1_linear)"/>
<path d="M0.37715 493.167L0 497.884L67.1388 497.695C67.1388 495.808 67.7046 494.865 66.7617 492.978L0.37715 493.167Z" fill="#C73E39"/>
<path d="M126.734 224.634C126.734 224.634 130.695 338.288 127.111 467.449C127.111 467.449 116.362 477.66 95.9936 470.852C95.9936 470.852 96.1821 327.131 90.7129 270.02C90.7129 270.02 65.0644 378.568 32.6265 472.554C32.6265 472.554 10.9383 476.715 3.20605 464.423C3.20605 464.423 46.9595 312.191 53.3717 224.634H126.734Z" fill="url(#paint2_linear)"/>
<path d="M126.734 224.634H53.3714C52.8056 231.253 52.2398 238.25 51.2969 245.436C95.0503 245.625 118.247 234.468 126.922 229.362C126.922 226.147 126.734 224.634 126.734 224.634Z" fill="#402B2B" fill-opacity="0.45" style="mix-blend-mode:multiply"/>
<path d="M166.716 145.587C146.537 109.846 130.695 97.743 130.695 97.743C122.02 102.66 128.62 136.321 128.62 136.321C134.09 147.1 137.861 156.745 145.971 166.2L166.716 145.587Z" fill="#D1402C"/>
<path d="M130.694 97.7431C130.694 97.7431 129.751 119.491 126.923 224.067C126.923 224.067 101.274 237.115 50.1654 228.038C50.1654 228.038 49.9768 196.646 42.9989 168.848C42.9989 168.848 29.986 116.465 36.5868 101.147C36.5868 101.147 78.2657 75.2394 130.694 97.7431Z" fill="url(#paint3_linear)"/>
<path d="M91.0901 77.0158L91.4673 90.5563C91.4673 90.5563 88.2612 95.284 80.5289 95.8513C72.7967 96.2295 69.0249 91.88 69.0249 91.88L68.2705 71.7208C77.8887 75.8812 87.3183 77.5831 91.0901 77.0158Z" fill="url(#paint4_linear)"/>
<path d="M90.336 71.457L91.0904 86.3965C87.3185 86.9638 77.8889 85.2618 68.4593 81.1015L67.8936 71.457H90.336Z" fill="url(#paint5_linear)" style="mix-blend-mode:multiply"/>
<path d="M39.2275 130.648C39.2275 130.648 50.3544 155.799 54.3148 167.146C58.2753 178.303 58.2753 222.743 79.0204 231.253C79.0204 231.253 56.9552 229.929 49.9772 228.038C49.9772 228.038 49.6 194.566 42.8107 168.848C42.8107 168.848 38.0959 141.805 36.21 129.513L39.2275 130.648Z" fill="#EE4D47" fill-opacity="0.29" style="mix-blend-mode:multiply"/>
<path d="M53.9375 38.5523C54.3147 38.7414 54.6919 44.7928 54.6919 44.7928L56.2006 57.4631L63.1786 62.9472L67.139 64.6491C67.139 64.6491 72.9854 62.1907 72.231 59.9214C71.4767 57.8412 67.7048 27.9623 66.9504 27.9623C66.1961 27.9623 60.1611 32.3118 60.1611 32.3118L53.9375 38.5523Z" fill="#402B2B"/>
<path d="M109.195 27.2058C110.892 27.2058 108.252 48.0078 108.252 48.0078L105.235 39.687L103.16 29.6642L109.195 27.2058Z" fill="#402B2B"/>
<path d="M106.366 31.3662L109.572 58.0304C109.572 58.0304 110.704 80.5343 92.2219 81.8581C73.7399 82.9927 61.1042 64.6492 61.1042 64.6492C61.1042 64.6492 58.8411 67.2967 56.3894 62.7581C54.1263 58.2196 55.635 52.1681 58.8411 51.6008C62.2357 51.2226 63.7445 53.1136 64.1217 55.9502C64.4989 58.7869 64.8761 60.8671 64.8761 60.8671L67.7049 60.4889L65.6304 38.5524C65.6304 38.5524 69.968 30.0425 74.8714 28.3405C79.7748 26.6386 84.1124 33.4464 84.1124 33.4464C84.1124 33.4464 88.6386 34.392 92.9763 33.4464C97.3139 32.5009 100.143 31.3662 100.143 31.3662C100.143 31.3662 102.783 32.1227 106.366 31.3662Z" fill="url(#paint6_linear)"/>
<path d="M92.976 71.6462C86.7525 72.0244 85.8096 64.8383 85.8096 64.8383C85.8096 64.8383 100.142 63.1363 100.52 62.9472C100.52 62.9472 101.651 71.0789 92.976 71.6462Z" fill="#893D43"/>
<path d="M86.3755 67.098C85.8097 65.7773 85.6211 64.8339 85.6211 64.8339C85.6211 64.8339 99.9541 63.1359 100.331 62.9472C100.331 62.9472 100.52 63.8905 100.331 65.3999L86.3755 67.098Z" fill="#FFFEFF"/>
<path d="M86.9419 24.5482V5.25919C75.4378 5.82651 63.5565 8.09577 57.7101 15.2819C50.7322 23.7917 54.6927 43.4589 54.6927 43.4589C54.6927 43.4589 63.1793 42.5134 64.688 39.6767C66.1968 36.8401 80.5298 32.8688 91.4682 33.4362C102.407 34.0035 107.687 32.8689 113.156 28.1412C114.288 27.1957 115.231 25.8719 115.985 24.359H86.9419V24.5482Z" fill="#402B2B"/>
<path d="M53.3716 36.283C53.3716 36.283 61.481 33.6355 75.0597 32.5008C97.8794 22.8563 107.686 24.5583 107.686 24.5583C107.686 24.5583 107.498 17.1831 105.423 12.0772C103.349 6.97135 89.3927 -0.214719 77.7 0.919925C66.0073 2.05457 53.9373 10.7535 52.0514 19.0742C50.5427 25.5038 53.3716 36.283 53.3716 36.283Z" fill="url(#paint7_linear)"/>
<path d="M67.1387 33.4463C69.5904 21.7216 87.1295 15.8593 99.5766 16.0484C111.835 16.2375 120.51 26.4493 121.83 33.4463C122.396 36.2829 120.133 36.6612 119.379 34.2027C118.813 32.5008 117.681 24.3692 106.366 25.3147C95.0504 26.2603 95.6161 36.4721 89.9584 37.4176C84.6778 38.3631 78.6428 34.581 67.1387 33.4463Z" fill="url(#paint8_linear)"/>
<path d="M105.046 36.0905V34.7698C104.48 34.7698 100.143 34.2037 94.8623 35.3358L95.0509 37.4112C99.3885 36.0905 105.046 36.0905 105.046 36.0905Z" fill="#402B2B"/>
<path d="M73.1743 40.8075C76.5689 38.9206 82.9811 37.9773 82.9811 37.7886L82.2267 35.9018C82.0381 35.9018 76.1918 37.0338 72.4199 39.4867L73.1743 40.8075Z" fill="#402B2B"/>
<path d="M92.0332 47.2513C92.0332 47.2513 92.599 51.2226 94.1077 52.3572C95.6165 53.4918 98.2568 54.4374 98.634 55.3829C99.0112 56.1393 98.2568 57.6522 96.5594 58.2195C94.8621 58.7868 94.6735 59.3542 94.6735 59.3542C94.6735 59.3542 98.0682 59.7324 99.7656 57.6522C101.463 55.572 99.577 53.8701 97.8796 52.9246C96.1823 51.979 95.4279 51.6008 94.6735 51.0335C93.7305 50.4662 92.0332 47.2513 92.0332 47.2513Z" fill="#D87C60"/>
<path d="M83.9236 49.3314C83.9236 51.2225 82.6035 52.9245 80.9062 52.9245C79.2088 52.9245 77.8887 51.4116 77.8887 49.3314C77.8887 47.4404 79.2088 45.7384 80.9062 45.7384C82.6035 45.7384 83.9236 47.2512 83.9236 49.3314Z" fill="#402B2B"/>
<path d="M104.669 46.8731C104.669 48.7642 103.349 50.4662 101.651 50.4662C99.9539 50.4662 98.6338 48.9533 98.6338 46.8731C98.6338 44.982 99.9539 43.2801 101.651 43.2801C103.349 43.4692 104.669 44.982 104.669 46.8731Z" fill="#402B2B"/>
<path d="M197.079 97.5538H80.5293V187.758H197.079V97.5538Z" fill="#8C5E5E"/>
<path d="M197.267 97.5538H154.834V187.758H197.267V97.5538Z" fill="#694646"/>
<path d="M182.746 97.5538H171.808V110.035H182.746V97.5538Z" fill="#A3774A"/>
<path d="M120.134 97.5538H109.195V110.035H120.134V97.5538Z" fill="#A3774A"/>
<path d="M197.268 163.931C197.268 163.931 191.233 167.902 189.536 169.604C187.838 171.306 184.821 187.569 187.838 189.271C190.856 190.973 196.702 189.271 198.588 189.649C200.663 190.027 206.697 186.245 206.697 183.22C206.697 180.194 202.926 160.149 201.983 159.77C201.04 159.392 197.268 156.934 197.268 156.934V163.931Z" fill="#F4A984"/>
<path d="M121.453 162.607H85.0547V180.383H121.453V162.607Z" fill="white"/>
<path fill-rule="evenodd" clip-rule="evenodd" d="M49.2225 185.678C35.4552 165.633 33.5693 104.929 33.5693 104.929C52.4286 107.388 65.0643 132.728 65.0643 132.917L67.8932 169.226L116.024 176.955L118.625 174.521C118.625 174.521 129.752 168.848 138.804 169.793C138.804 169.793 142.953 170.55 142.01 173.008C141.633 174.332 142.388 175.183 143.142 176.034C143.896 176.885 144.651 177.736 144.274 179.059C143.955 180.176 144.241 181.024 144.522 181.858C144.908 183.001 145.284 184.118 144.085 185.867C144.085 185.867 145.594 188.137 143.896 190.217C143.819 190.311 143.738 190.411 143.653 190.515C141.862 192.715 138.367 197.007 137.107 196.646C136.633 196.511 135.529 196.326 134.289 196.119C132.074 195.75 129.428 195.308 129.186 194.944C128.809 194.377 128.432 193.242 130.318 192.108C130.318 192.108 128.243 192.675 125.603 192.297C122.963 192.108 119.191 190.028 119.191 190.028L118.49 189.442C65.5914 193.793 49.2225 185.678 49.2225 185.678Z" fill="url(#paint9_linear)"/>
<path d="M70.3449 160.527L65.0643 132.728C65.0643 132.728 55.4461 103.605 36.5869 101.147C36.5869 101.147 23.0082 109.657 39.7929 167.524L70.3449 160.527Z" fill="url(#paint10_linear)"/>
<defs>
<linearGradient id="paint0_linear" x1="129.846" y1="465.165" x2="129.846" y2="493.889" gradientUnits="userSpaceOnUse">
<stop stop-color="#F4A984"/>
<stop offset="1" stop-color="#EE4D47"/>
</linearGradient>
<linearGradient id="paint1_linear" x1="33.8519" y1="454.831" x2="33.8519" y2="494.038" gradientUnits="userSpaceOnUse">
<stop stop-color="#F4A984"/>
<stop offset="1" stop-color="#EE4D47"/>
</linearGradient>
<linearGradient id="paint2_linear" x1="65.9088" y1="154.321" x2="65.9088" y2="473.232" gradientUnits="userSpaceOnUse">
<stop stop-color="#822626"/>
<stop offset="0.943497" stop-color="#402B2B"/>
</linearGradient>
<linearGradient id="paint3_linear" x1="82.7066" y1="55.5232" x2="82.7066" y2="235.157" gradientUnits="userSpaceOnUse">
<stop stop-color="#F4A984"/>
<stop offset="1" stop-color="#EE4D47"/>
</linearGradient>
<linearGradient id="paint4_linear" x1="72.1405" y1="89.5811" x2="91.2391" y2="97.7992" gradientUnits="userSpaceOnUse">
<stop stop-color="#FFB3B6"/>
<stop offset="1" stop-color="#FFC8C1"/>
</linearGradient>
<linearGradient id="paint5_linear" x1="71.7636" y1="80.0932" x2="90.9696" y2="88.2082" gradientUnits="userSpaceOnUse">
<stop stop-color="#FFB3B6" stop-opacity="0.31"/>
<stop offset="1" stop-color="#FFC8C1"/>
</linearGradient>
<linearGradient id="paint6_linear" x1="112.03" y1="75.3833" x2="107.93" y2="38.8239" gradientUnits="userSpaceOnUse">
<stop stop-color="#FFB3B6"/>
<stop offset="1" stop-color="#FFC8C1"/>
</linearGradient>
<linearGradient id="paint7_linear" x1="79.6473" y1="-18.2536" x2="79.6473" y2="36.7307" gradientUnits="userSpaceOnUse">
<stop stop-color="#F4A984"/>
<stop offset="1" stop-color="#EE4D47"/>
</linearGradient>
<linearGradient id="paint8_linear" x1="78.2142" y1="10.5995" x2="78.2142" y2="67.7616" gradientUnits="userSpaceOnUse">
<stop stop-color="#F4A984"/>
<stop offset="1" stop-color="#EE4D47"/>
</linearGradient>
<linearGradient id="paint9_linear" x1="52.1428" y1="157.588" x2="149.956" y2="190.118" gradientUnits="userSpaceOnUse">
<stop stop-color="#FFB3B6"/>
<stop offset="1" stop-color="#FFC8C1"/>
</linearGradient>
<linearGradient id="paint10_linear" x1="50.8726" y1="81.9161" x2="50.8726" y2="149.966" gradientUnits="userSpaceOnUse">
<stop stop-color="#F4A984"/>
<stop offset="1" stop-color="#EE4D47"/>
</linearGradient>
</defs>
</svg>
