<svg width="203" height="501" viewBox="0 0 203 501" fill="none" xmlns="http://www.w3.org/2000/svg">
<path fill-rule="evenodd" clip-rule="evenodd" d="M93.4055 132.189L93.4055 132.189L93.2941 133.044C92.5747 138.575 91.3756 144.106 90.1766 149.636L90.1766 149.636L90.1757 149.64C87.7771 160.704 84.6589 171.528 80.3413 182.351L78.6623 186.44L78.1825 187.402L77.9427 187.883C77.9427 187.983 77.9016 188.041 77.8533 188.109C77.7852 188.206 77.7029 188.323 77.7029 188.605C77.2232 189.807 76.5036 191.01 75.3042 192.212C74.3449 193.415 72.906 194.377 71.467 195.339L71.4663 195.339C70.0271 196.061 68.3482 196.542 66.909 196.782C64.0306 197.023 61.632 196.542 59.713 196.061C55.8752 194.858 53.2366 193.175 50.5981 191.25C47.96 189.567 45.8017 187.643 43.6433 185.719L43.6421 185.718C35.1721 177.933 28.3176 169.685 21.9466 160.747C17.1545 159.039 13.179 154.932 13.179 154.932L18.6522 137.751L13.1795 154.691L0.946289 147.235L4.54429 132.563L18.6964 137.614L18.6962 137.615L28.2904 152.767L28.2355 154.696L28.5307 154.451C30.4496 156.255 32.4284 158.059 34.4073 159.862C36.3862 161.666 38.365 163.47 40.2839 165.274C44.3612 168.882 48.4386 172.008 52.5159 175.135L52.5171 175.136C53.1426 175.554 53.748 175.972 54.345 176.384C55.8081 177.395 57.2203 178.37 58.7535 179.224C60.4335 180.277 62.2973 180.961 63.7012 181.438L64.0306 180.667L65.4697 177.06C68.8278 167.439 71.4663 157.337 73.3852 146.995C73.9006 144.281 74.3468 141.499 74.7982 138.684L74.7983 138.683L74.7985 138.682C75.1873 136.258 75.5799 133.809 76.0238 131.361C76.7434 126.31 77.463 120.778 77.7029 115.967L94.973 116.208C94.7455 121.91 94.0867 126.964 93.4055 132.189ZM64.6583 181.724C65.0692 181.78 65.1797 181.63 64.99 181.63C64.9239 181.63 64.8034 181.666 64.6583 181.724Z" fill="url(#paint0_linear)"/>
<path d="M86.2016 94.0094C79.0056 95.9335 73.7285 125.998 73.7285 125.998L93.8773 139.708C93.8773 139.708 113.067 109.403 107.55 101.225C101.553 92.8068 96.7556 91.1231 86.2016 94.0094Z" fill="#FFEDBA"/>
<path opacity="0.3" d="M86.6819 100.744L81.165 131.049L92.4386 138.746L86.6819 100.744Z" fill="#ED6B57"/>
<path d="M128.045 474.873H104.341L103.06 434.588H126.443L128.045 474.873Z" fill="#FFC3BD"/>
<path d="M104.088 472.695H128.031C128.897 472.695 129.474 473.292 129.762 474.186L132.358 493.862C132.647 495.949 130.916 497.738 128.897 497.738C120.531 497.738 116.492 497.142 106.108 497.142C99.7613 497.142 86.2033 497.738 77.2607 497.738C68.6067 497.738 67.7413 488.496 71.4914 487.9C88.2226 484.322 94.8573 478.956 100.338 474.186C101.492 473.292 102.934 472.695 104.088 472.695Z" fill="#14365B"/>
<path d="M103.06 435.676L103.689 450.919H126.958L126.015 435.676H103.06Z" fill="#F29994"/>
<path d="M100.886 444.683C100.886 444.683 86.877 320.334 85.6776 264.052C85.2891 245.821 87.7388 220.501 90.0229 203.217H128.044L125.541 264.052C123.382 319.372 128.044 444.683 128.044 444.683H100.886Z" fill="url(#paint1_linear)"/>
<path d="M91.1352 93.4905C91.1352 93.4905 88.0789 103.202 87.3331 111.712C86.5108 121.095 77.5308 137.889 82.7399 147.688C94.9118 163.476 88.8472 187.609 91.1352 201.833C119.679 201.833 149.183 201.833 163.095 201.833C161.895 172.49 161.895 154.451 175.807 94.0803C175.807 94.0803 160.696 90.713 145.345 89.9915C133.351 89.5104 123.277 89.0294 112.723 89.9915C98.571 91.1941 91.1352 93.4905 91.1352 93.4905Z" fill="#FFEDBA"/>
<path d="M141.987 52.9513C139.828 63.5342 137.909 82.7758 145.105 89.7509C145.105 89.7509 142.227 100.334 122.797 100.334C101.21 100.334 112.483 89.7509 112.483 89.7509C124.237 86.8646 123.997 78.2059 121.838 70.0282L141.987 52.9513Z" fill="url(#paint2_linear)"/>
<path d="M133.831 59.9264L122.078 70.0281C122.558 71.9523 123.037 73.8765 123.037 75.8007C127.595 75.0791 133.592 70.2687 134.071 65.4583C134.311 63.2936 134.311 61.129 133.831 59.9264Z" fill="#F29994"/>
<path d="M105.413 43.1497C97.7157 31.6033 100.144 20.9275 105.413 14.971H126.032C126.719 24.1348 128.094 43.4246 128.094 47.2734C128.094 51.1222 147.796 44.5242 145.963 48.6479C141.381 47.7316 113.111 54.696 105.413 43.1497Z" fill="#0F264C"/>
<path d="M153.021 33.7015C148.943 50.7784 147.504 58.2345 137.19 65.4501C121.599 76.514 101.69 67.6148 100.491 49.5757C99.5314 33.4609 106.487 7.96573 124.477 4.11741C142.707 0.509601 157.339 16.6245 153.021 33.7015Z" fill="url(#paint3_linear)"/>
<path d="M132.025 446.564H98.0673L95.4551 435.728L133.476 434.588L132.025 446.564Z" fill="#4B2A2A"/>
<path d="M122.079 235.747C114.105 251.738 116.976 276.966 118.268 298.487C119.853 324.873 121.282 347.329 124.717 360.576C127.835 324.258 133.352 279.762 137.43 247.291C135.031 228.771 130.234 219.391 122.079 235.747Z" fill="#EE4D47" fill-opacity="0.29" style="mix-blend-mode:multiply"/>
<path d="M194.853 440.167L172.041 347.83V257.124L165.318 202.265H124.581C119.801 232.682 130.399 315.965 138.908 359.237L165.318 440.167H194.853Z" fill="url(#paint4_linear)"/>
<path d="M178.015 473.299L171.497 447.228H194.31L198.112 473.299H178.015Z" fill="#FFC3BD"/>
<path d="M169.383 484.588L177.227 472.756H197.957C200.519 474.291 201.684 483.895 202.442 490.341C202.737 492.851 201.175 495.254 198.746 495.951L181.149 501H155.691C153.633 501 151.976 499.311 152.015 497.254C152.015 489.904 164.126 485.201 169.383 484.588Z" fill="#14365B"/>
<path fill-rule="evenodd" clip-rule="evenodd" d="M195.166 453.097L194.31 447.228H171.497L172.964 453.097H195.166Z" fill="#F29994"/>
<path d="M199.376 449.831H165.419L162.807 438.995L200.828 437.854L199.376 449.831Z" fill="#4B2A2A"/>
<circle r="20.6185" transform="matrix(1 0 0 -1 163.146 28.0294)" fill="#0F264C"/>
<path d="M125.964 33.6943C126.217 32.2587 125.683 30.9635 124.77 30.8013C123.857 30.6392 122.911 31.6715 122.657 33.1071C122.404 34.5427 122.938 35.8381 123.851 36.0002C124.765 36.1624 125.71 35.1299 125.964 33.6943Z" fill="#0F264C"/>
<path d="M110.084 31.0573C109.844 32.4971 108.885 33.457 107.925 33.217C106.966 32.977 106.486 31.7772 106.726 30.3373C106.966 28.8975 107.926 27.9376 108.885 28.1776C109.844 28.4176 110.324 29.6174 110.084 31.0573Z" fill="#0F264C"/>
<path d="M109.365 28.4143L106.247 26.7345C106.007 26.7345 107.446 29.6142 109.365 28.4143Z" fill="#0F264C"/>
<path d="M113.922 34.1908C113.922 34.1908 110.564 39.7227 107.206 42.3684C108.645 44.533 112.003 44.2926 112.003 44.2926L113.922 34.1908Z" fill="#ED847E"/>
<path d="M120.124 52.4055C119.065 52.4055 118.006 52.4056 116.594 52.0608C116.241 52.0608 115.888 51.7159 116.241 51.371C116.241 51.0261 116.594 50.6813 116.947 51.0261C126.124 52.7504 131.419 47.2326 131.419 47.2326C131.772 46.8878 132.125 46.8878 132.125 47.2326C132.478 47.5775 132.478 47.9224 132.125 47.9224C132.125 47.9224 127.889 52.4055 120.124 52.4055Z" fill="#0F264C"/>
<path d="M162.39 17.3554C170.384 36.4111 153.964 46.157 144.754 48.6479L153.572 31.367L151.808 22.0259C143.775 17.044 129.823 6.8934 138.288 6.14612C148.869 5.21201 159.45 10.3496 162.39 17.3554Z" fill="#D3D86C"/>
<path d="M125.436 2.92302C117.52 7.49289 136.949 50.546 151.341 44.533C165.733 38.52 160.936 14.468 153.98 8.45502C146.784 2.20151 136.469 -3.57101 125.436 2.92302Z" fill="#0F264C"/>
<path d="M159.709 17.0329C169.056 45.0741 149.858 59.4154 139.091 63.0809L149.4 37.6514L147.338 23.9057C137.945 16.5747 121.634 1.63774 131.53 0.538091C143.902 -0.836477 156.273 6.72364 159.709 17.0329Z" fill="#0F264C"/>
<path d="M120.879 0.758471C120.879 0.758471 111.284 2.20158 105.048 13.987C98.5712 26.013 135.271 2.4421 129.994 0.758471C124.956 -0.925163 120.879 0.758471 120.879 0.758471Z" fill="#0F264C"/>
<path d="M153.741 46.6977C152.301 50.065 149.663 52.4702 146.785 53.6728C142.707 55.3564 140.068 51.7486 140.788 47.4192C141.508 43.5709 144.386 38.2795 148.943 38.2795C153.261 38.2795 155.42 42.6089 153.741 46.6977Z" fill="url(#paint5_linear)"/>
<path fill-rule="evenodd" clip-rule="evenodd" d="M183.482 112.841C187.56 122.462 190.678 132.083 193.557 141.944C196.435 151.805 198.834 161.907 200.033 172.49C200.273 175.136 200.513 177.781 200.753 180.668V182.832C200.753 182.867 200.757 182.935 200.764 183.033C200.806 183.622 200.924 185.272 200.513 186.921C200.273 187.883 199.793 189.086 199.074 190.048C198.354 191.25 197.395 192.212 196.435 192.934C194.276 194.377 192.357 194.858 190.918 195.099C189.924 195.265 189.045 195.201 188.28 195.146L188.279 195.146C187.937 195.122 187.617 195.099 187.32 195.099C186.87 194.986 186.42 194.926 185.995 194.869H185.995C185.514 194.805 185.064 194.745 184.682 194.618C183.003 194.137 181.563 193.656 180.364 193.175C177.726 191.972 175.327 190.769 172.928 189.567C163.813 184.275 155.658 178.262 147.983 171.528L148.104 171.348C144.843 169.685 142.266 166.576 140.834 164.554L129.753 152.286L136.949 138.817L149.182 147.235L149.182 147.235L155.037 165.085L156.26 165.7L156.26 165.7C163.864 169.526 171.606 173.421 179.165 176.579C180.672 177.251 182.18 177.805 183.606 178.242C183.467 177.35 183.337 176.465 183.243 175.617C182.523 171.048 181.324 166.479 180.125 161.91L180.124 161.907C179.525 159.622 178.865 157.277 178.205 154.932C177.546 152.587 176.886 150.242 176.286 147.957C173.408 138.817 170.05 129.437 166.692 120.538L183.482 112.841Z" fill="#FFC3BD"/>
<path d="M130.473 24.5604C130.233 24.5604 129.993 24.5604 129.753 24.3204C127.115 21.6807 124.236 22.1607 123.997 22.1607C123.517 22.1607 123.037 21.9207 123.037 21.4408C123.037 20.9608 123.277 20.4809 123.757 20.4809C123.997 20.4809 127.834 19.7609 130.953 23.1205C131.192 23.3605 131.192 24.0804 130.953 24.3204C130.713 24.5604 130.713 24.5604 130.473 24.5604Z" fill="#0F264C"/>
<path d="M104.328 22.3956C104.088 22.3956 103.848 22.3955 103.848 22.1556C103.608 21.9156 103.608 21.1957 103.848 20.9557C106.966 17.5962 110.804 18.3161 111.044 18.3161C111.524 18.3161 111.763 18.7961 111.763 19.276C111.763 19.756 111.284 19.9959 110.804 19.9959C110.564 19.9959 107.686 19.5159 105.047 22.1556C104.807 22.3955 104.567 22.3956 104.328 22.3956Z" fill="#0F264C"/>
<path d="M175.807 93.8397C183.003 96.0044 191.639 121.018 191.639 121.018L163.574 140.982C163.574 140.982 153.26 120.297 156.378 110.917C159.736 101.296 167.652 91.4345 175.807 93.8397Z" fill="#FFEDBA"/>
<path d="M92.4324 474.873C89.4569 474.873 86.4814 474.438 84.781 472.697C83.9309 471.827 83.5059 470.521 83.5059 468.78C83.5059 467.91 83.9309 467.04 84.781 466.604C88.6068 464.428 100.934 470.956 102.634 471.827C103.06 471.827 103.059 472.262 103.059 472.697C103.059 473.132 102.634 473.132 102.634 473.132C99.6589 474.438 95.8331 474.873 92.4324 474.873ZM86.9064 468.345C86.4814 468.345 86.0563 468.345 85.6313 468.78C85.2062 468.78 85.206 469.216 85.206 469.651C85.206 470.521 85.2061 471.391 86.0562 472.262C87.7566 474.003 93.2825 474.438 100.084 473.132C95.408 470.521 89.882 468.345 86.9064 468.345Z" fill="#9FC6FF"/>
<path d="M102.206 473.784C97.9452 472.201 90.7012 465.866 91.1274 462.698C91.1274 461.906 91.9797 461.115 94.1103 460.719C95.8148 460.719 97.0931 461.115 98.3715 461.906C102.207 465.074 103.059 472.992 103.059 472.992C103.059 473.388 103.059 473.388 102.633 473.784H102.206ZM94.5363 461.906H94.1103C92.8319 461.906 92.8317 462.698 92.8317 462.698C92.4056 464.678 97.519 469.825 101.354 471.805C100.928 469.429 100.076 464.678 97.5192 462.698C96.6669 462.302 95.8147 461.906 94.5363 461.906Z" fill="#9FC6FF"/>
<path d="M172.406 478.045C170.074 476.328 167.992 474.269 167.66 471.923C167.494 470.751 167.911 469.482 168.911 468.118C169.411 467.436 170.244 466.999 171.161 467.148C175.409 467.651 181.319 479.883 182.152 481.546C182.485 481.791 182.235 482.133 181.985 482.474C181.735 482.815 181.402 482.569 181.402 482.569C178.32 481.875 175.071 480.008 172.406 478.045ZM171.826 469.74C171.493 469.494 171.16 469.249 170.577 469.344C170.244 469.099 169.993 469.44 169.743 469.781C169.243 470.463 168.743 471.145 168.91 472.318C169.242 474.664 173.323 478.195 179.403 481.097C177.239 476.352 174.158 471.457 171.826 469.74Z" fill="#9FC6FF"/>
<path d="M180.692 482.834C178.262 479.133 176.225 469.987 178.379 467.751C178.834 467.13 179.957 467.001 181.854 467.921C183.19 468.905 183.964 469.953 184.511 471.311C185.697 476.007 181.815 482.705 181.815 482.705C181.587 483.015 181.587 483.016 181.026 483.08L180.692 482.834ZM181.505 469.098L181.171 468.852C180.169 468.114 179.714 468.734 179.714 468.734C178.243 470.04 179.293 477.025 181.161 480.79C182.192 478.683 184.254 474.467 183.388 471.44C182.948 470.638 182.507 469.836 181.505 469.098Z" fill="#9FC6FF"/>
<path d="M164.054 197.504L165.973 203.998C166.213 204.479 165.733 204.96 164.773 204.96H90.6552C89.9356 204.96 89.4559 204.719 89.4559 204.238L88.7363 197.744C88.7363 197.263 89.2161 197.023 89.9357 197.023H162.854C163.574 196.782 164.054 197.023 164.054 197.504Z" fill="#F18069"/>
<path d="M154.459 205.682H156.378C156.858 205.682 157.098 205.441 157.098 205.201L156.138 196.782C156.138 196.542 155.659 196.301 155.419 196.301H153.5C153.02 196.301 152.78 196.542 152.78 196.782L153.74 205.201C153.74 205.441 153.98 205.682 154.459 205.682Z" fill="#6A2828"/>
<path d="M96.1731 205.682H98.0921C98.5718 205.682 98.8116 205.441 98.8116 205.201L97.8521 196.782C97.8521 196.542 97.3724 196.301 97.1326 196.301H95.2137C94.734 196.301 94.4941 196.542 94.4941 196.782L95.4535 205.201C95.4535 205.441 95.9332 205.682 96.1731 205.682Z" fill="#6A2828"/>
<path d="M125.196 205.682H127.115C127.594 205.682 127.834 205.441 127.834 205.201L126.875 196.782C126.875 196.542 126.395 196.301 126.155 196.301H124.236C123.756 196.301 123.517 196.542 123.517 196.782L124.476 205.201C124.476 205.441 124.956 205.682 125.196 205.682Z" fill="#6A2828"/>
<path d="M125.196 31.0601L122.078 29.3802C122.078 29.6202 123.277 32.5 125.196 31.0601Z" fill="#0F264C"/>
<defs>
<linearGradient id="paint0_linear" x1="99.2069" y1="187.044" x2="93.8491" y2="131.956" gradientUnits="userSpaceOnUse">
<stop stop-color="#FFB3B6"/>
<stop offset="1" stop-color="#FFC8C1"/>
</linearGradient>
<linearGradient id="paint1_linear" x1="104.717" y1="150.676" x2="104.717" y2="451.22" gradientUnits="userSpaceOnUse">
<stop stop-color="#F4A984"/>
<stop offset="1" stop-color="#EE4D47"/>
</linearGradient>
<linearGradient id="paint2_linear" x1="130.217" y1="94.3369" x2="130.438" y2="30.6086" gradientUnits="userSpaceOnUse">
<stop stop-color="#FFB3B6"/>
<stop offset="1" stop-color="#FFC8C1"/>
</linearGradient>
<linearGradient id="paint3_linear" x1="156.187" y1="62.2259" x2="149.834" y2="17.261" gradientUnits="userSpaceOnUse">
<stop stop-color="#FFB3B6"/>
<stop offset="1" stop-color="#FFC8C1"/>
</linearGradient>
<linearGradient id="paint4_linear" x1="160.26" y1="151.09" x2="160.26" y2="443.818" gradientUnits="userSpaceOnUse">
<stop stop-color="#F4A984"/>
<stop offset="1" stop-color="#EE4D47"/>
</linearGradient>
<linearGradient id="paint5_linear" x1="154.925" y1="52.1784" x2="153.523" y2="41.4878" gradientUnits="userSpaceOnUse">
<stop stop-color="#FFB3B6"/>
<stop offset="1" stop-color="#FFC8C1"/>
</linearGradient>
</defs>
</svg>
